<svg width="92" height="96" viewBox="0 0 92 96" fill="none" xmlns="http://www.w3.org/2000/svg">
<g clip-path="url(#clip0_125_143)">
<path d="M76.8572 31.4806L76.6656 71.2815L76.6336 78.9797C76.6017 85.0968 70.7881 90.0319 63.6329 90L27.8888 89.8403C20.7496 89.7924 14.9679 84.8093 14.9999 78.6762L15.2235 31.1772C15.2395 26.226 19.0726 22.0415 24.3112 20.652L24.3272 18.0966V16.7869L67.8813 16.9946L67.8653 20.8596C73.088 22.313 76.8732 26.5135 76.8572 31.4806Z" fill="url(#paint0_linear_125_143)"/>
<path d="M71.1234 6.77283V7.1242L71.0915 11.2768L71.0595 15.3495V15.8446C71.0595 16.6112 70.4207 17.2341 69.654 17.2341H69.3186L67.2104 17.2182L64.8946 17.2022L62.7863 17.1862L60.4705 17.1702L58.3303 17.1383L56.0144 17.1223L53.9062 17.1064L51.5744 17.0904L49.4502 17.0744L47.1343 17.0584L45.0261 17.0265L42.7102 17.0105L40.602 16.9946L38.2702 16.9786L36.146 16.9626L33.8461 16.9466L31.7378 16.9307L29.422 16.9147L27.2978 16.8987L24.9819 16.8828L22.8577 16.8668H22.5223C21.7557 16.8668 21.1328 16.2279 21.1328 15.4613V15.4453V15.0939L21.1967 6.88463V6.38952C21.1967 5.62289 21.8356 5 22.6182 5H22.9536L27.3936 5.03194L31.8337 5.06389L33.9579 5.07986L36.2737 5.09583L38.382 5.1118L42.8061 5.15971L45.1219 5.17569L47.2301 5.19166L49.546 5.20763L51.6542 5.2236L53.9701 5.23957L56.0783 5.25554L58.3942 5.27151L60.5024 5.28749L62.8502 5.31943L64.9584 5.3354L67.2743 5.35137L69.3985 5.36734H69.7339C70.5165 5.38331 71.1234 6.0062 71.1234 6.77283Z" fill="url(#paint1_linear_125_143)"/>
<path d="M71.1234 7.14019L71.0915 11.2768L71.0595 15.3495L69.1589 15.3335L66.6354 15.3176L64.3196 15.3016H61.7801L59.4643 15.2856L56.9408 15.2697L54.6249 15.2537H52.0855L49.7696 15.2377L47.2301 15.2217L44.9303 15.2058H42.3908L40.0749 15.1898L37.5355 15.1738L35.2196 15.1579H32.6961L30.3803 15.1419L27.8408 15.1259L25.525 15.1099H23.0015L21.1328 15.094L21.1967 6.88464L25.6368 6.90061L30.4761 6.93256L32.792 6.94853L35.3314 6.9645H37.6473L42.4866 6.99644L45.0261 7.01242H47.3419L49.8814 7.02839L52.1813 7.04436L54.7207 7.06033H57.0366L59.5761 7.0763L61.876 7.09227L64.4154 7.10824H66.7313L69.2707 7.12422L71.1234 7.14019Z" fill="url(#paint2_linear_125_143)"/>
<path d="M76.8105 39.8841L15.1768 39.5927L15.0475 66.9198L76.6813 67.2112L76.8105 39.8841Z" fill="#F7F9FC"/>
<path d="M76.8213 39.884L15.1875 39.5927L15.1642 44.5119L76.798 44.8032L76.8213 39.884Z" fill="#FBFCF7"/>
<path d="M39.2127 50.5803L35.2358 50.5644L35.2518 46.5715L29.7736 46.5555L29.7576 50.5324L25.7807 50.5165L25.7488 55.9787L29.7257 55.9947L29.7097 59.9875L35.1879 60.0035L35.2039 56.0266L39.1808 56.0426L39.2127 50.5803Z" fill="url(#paint3_linear_125_143)"/>
<path d="M66.2364 51.906L46.5276 51.8102C46.0006 51.8102 45.5693 51.379 45.5693 50.8519V50.4047C45.5693 49.8776 46.0006 49.4464 46.5276 49.4464L66.2364 49.5422C66.7634 49.5422 67.1947 49.9735 67.1947 50.5005V50.9477C67.1947 51.4748 66.7634 51.906 66.2364 51.906Z" fill="url(#paint4_linear_125_143)"/>
<path opacity="0.5" d="M66.2203 57.7675L46.5115 57.6717C45.9845 57.6717 45.5532 57.2405 45.5532 56.7134V56.2662C45.5532 55.7392 45.9845 55.3079 46.5115 55.3079L66.2203 55.4038C66.7473 55.4038 67.1785 55.835 67.1785 56.362V56.8092C67.1785 57.3363 66.7473 57.7675 66.2203 57.7675Z" fill="url(#paint5_linear_125_143)"/>
<path opacity="0.08" d="M21.1328 6.77286V7.12423L21.1648 11.2768L21.1967 15.3335V15.8287C21.1967 16.5953 21.8356 17.2182 22.6022 17.2182H22.9376L25.0618 17.2022L27.3776 17.1862L29.4859 17.1703L31.8017 17.1543L33.91 17.1383L36.2258 17.1223L38.3341 17.1064L40.6499 17.0904L42.7741 17.0744L45.09 17.0585L47.1982 17.0425L49.5141 17.0265L51.6223 17.0105L53.9381 16.9946L56.0624 16.9786L58.3782 16.9626L60.4864 16.9467L62.8023 16.9307L64.9105 16.9147L67.2264 16.8987L69.3506 16.8828H69.686C70.4526 16.8828 71.0755 16.2439 71.0755 15.4773V15.4613V15.1099C46.3677 16.18 22.5223 5.36737 22.5223 5.36737C21.7557 5.38334 21.1328 6.00623 21.1328 6.77286Z" fill="#1A6FB5"/>
</g>
<defs>
<linearGradient id="paint0_linear_125_143" x1="14.9999" y1="16.3333" x2="72.1388" y2="95.1944" gradientUnits="userSpaceOnUse">
<stop stop-color="#6CBCFC"/>
<stop offset="1" stop-color="#458DFC"/>
</linearGradient>
<linearGradient id="paint1_linear_125_143" x1="-614.93" y1="-34.931" x2="-12.6043" y2="7.02206" gradientUnits="userSpaceOnUse">
<stop stop-color="#B0F4FF"/>
<stop offset="0.0525488" stop-color="#A9F2FF"/>
<stop offset="0.2879" stop-color="#8DE8FE"/>
<stop offset="0.5247" stop-color="#79E1FD"/>
<stop offset="0.7618" stop-color="#6DDDFC"/>
<stop offset="1" stop-color="#69DCFC"/>
</linearGradient>
<linearGradient id="paint2_linear_125_143" x1="21.1397" y1="11.1131" x2="71.1255" y2="11.1131" gradientUnits="userSpaceOnUse">
<stop stop-color="#B0F4FF"/>
<stop offset="0.0525488" stop-color="#A9F2FF"/>
<stop offset="0.2879" stop-color="#8DE8FE"/>
<stop offset="0.5247" stop-color="#79E1FD"/>
<stop offset="0.7618" stop-color="#6DDDFC"/>
<stop offset="1" stop-color="#69DCFC"/>
</linearGradient>
<linearGradient id="paint3_linear_125_143" x1="36.9779" y1="48.0953" x2="27.5975" y2="58.9124" gradientUnits="userSpaceOnUse">
<stop stop-color="#6CBCFC"/>
<stop offset="1" stop-color="#458DFC"/>
</linearGradient>
<linearGradient id="paint4_linear_125_143" x1="67.3847" y1="50.671" x2="43.8866" y2="50.671" gradientUnits="userSpaceOnUse">
<stop stop-color="#6CBCFC"/>
<stop offset="1" stop-color="#458DFC"/>
</linearGradient>
<linearGradient id="paint5_linear_125_143" x1="45.5518" y1="56.5322" x2="67.1789" y2="56.5322" gradientUnits="userSpaceOnUse">
<stop stop-color="#6888C8"/>
<stop offset="1" stop-color="#458DFC"/>
</linearGradient>
<clipPath id="clip0_125_143">
<rect width="61.8574" height="85" fill="white" transform="translate(15 5)"/>
</clipPath>
</defs>
</svg>
