<svg width="92" height="96" viewBox="0 0 92 96" fill="none" xmlns="http://www.w3.org/2000/svg">
<g clip-path="url(#clip0_125_145)">
<path d="M76.9697 0H14.3297C13.0414 0 12 1.02822 12 2.30017V92.7074C12 93.9794 13.0414 95.0076 14.3297 95.0076H76.9697C78.258 95.0076 79.2994 93.9794 79.2994 92.7074V2.30017C79.2917 1.02822 78.2502 0 76.9697 0Z" fill="url(#paint0_linear_125_145)"/>
<path d="M72.858 4.09766H18.4338C17.1841 4.09766 16.1658 5.10303 16.1658 6.34451V81.0923C16.1658 82.3338 17.1841 83.3316 18.4338 83.3316H72.858C74.1155 83.3316 75.126 82.3262 75.126 81.0923V6.34451C75.126 5.10303 74.1155 4.09766 72.858 4.09766Z" fill="white"/>
<path d="M56.7736 39.636H34.5256C33.5073 39.636 32.6819 38.8211 32.6819 37.8157V15.8422C32.6819 14.8369 33.5073 14.0219 34.5256 14.0219H56.7736C57.7919 14.0219 58.6173 14.8369 58.6173 15.8422V37.8081C58.6173 38.8135 57.7919 39.636 56.7736 39.636Z" fill="url(#paint1_linear_125_145)"/>
<path d="M45.6498 92.5475C47.5414 92.5475 49.0749 91.0335 49.0749 89.1658C49.0749 87.2981 47.5414 85.7841 45.6498 85.7841C43.7581 85.7841 42.2246 87.2981 42.2246 89.1658C42.2246 91.0335 43.7581 92.5475 45.6498 92.5475Z" fill="white"/>
<path d="M65.0356 51.015H26.2559C25.2762 51.015 24.4739 50.2229 24.4739 49.2556C24.4739 48.2883 25.2762 47.4962 26.2559 47.4962H65.0279C66.0076 47.4962 66.8099 48.2883 66.8099 49.2556C66.8099 50.2229 66.0153 51.015 65.0356 51.015Z" fill="url(#paint2_linear_125_145)"/>
<path opacity="0.6" d="M58.4708 60.764H25.608C24.9831 60.764 24.4817 60.2613 24.4817 59.652V59.5302C24.4817 58.9132 24.9908 58.4182 25.608 58.4182H58.4708C59.0957 58.4182 59.5971 58.9208 59.5971 59.5302V59.652C59.6048 60.2613 59.0957 60.764 58.4708 60.764Z" fill="url(#paint3_linear_125_145)"/>
<path opacity="0.3" d="M52.2144 66.9562H25.4999C24.9367 66.9562 24.4739 66.4992 24.4739 65.9432V65.6081C24.4739 65.0521 24.9367 64.5951 25.4999 64.5951H52.2067C52.7699 64.5951 53.2327 65.0521 53.2327 65.6081V65.9432C53.2327 66.4992 52.7699 66.9562 52.2144 66.9562Z" fill="url(#paint4_linear_125_145)"/>
<path opacity="0.6" d="M55.578 72.6914H25.5617C24.9677 72.6914 24.4817 72.2116 24.4817 71.6251V71.4119C24.4817 70.8254 24.9677 70.3456 25.5617 70.3456H55.578C56.172 70.3456 56.658 70.8254 56.658 71.4119V71.6251C56.658 72.204 56.172 72.6914 55.578 72.6914Z" fill="url(#paint5_linear_125_145)"/>
<path d="M45.7165 26.1208C47.9441 26.1208 49.7497 24.3141 49.7497 22.0854C49.7497 19.8566 47.9441 18.05 45.7165 18.05C43.4889 18.05 41.6832 19.8566 41.6832 22.0854C41.6832 24.3141 43.4804 26.1208 45.7165 26.1208ZM45.7165 28.1385C43.0248 28.1385 37.6499 29.4892 37.6499 32.1739V33.1869C37.6499 33.7441 38.1055 34.2 38.6624 34.2H52.7874C53.3443 34.2 53.7999 33.7441 53.7999 33.1869V32.1739C53.783 29.4977 48.4081 28.1385 45.7165 28.1385Z" fill="white"/>
</g>
<defs>
<linearGradient id="paint0_linear_125_145" x1="16.077" y1="45.0301" x2="79.3445" y2="50.4539" gradientUnits="userSpaceOnUse">
<stop stop-color="#6CBCFC"/>
<stop offset="1" stop-color="#458DFC"/>
</linearGradient>
<linearGradient id="paint1_linear_125_145" x1="30.6707" y1="19.2924" x2="60.4653" y2="34.6685" gradientUnits="userSpaceOnUse">
<stop stop-color="#B0F4FF"/>
<stop offset="0.0856277" stop-color="#A3F0FE"/>
<stop offset="0.2972" stop-color="#8AE7FD"/>
<stop offset="0.5161" stop-color="#77E1FD"/>
<stop offset="0.7451" stop-color="#6DDDFC"/>
<stop offset="1" stop-color="#69DCFC"/>
</linearGradient>
<linearGradient id="paint2_linear_125_145" x1="66.8136" y1="49.257" x2="24.4812" y2="49.257" gradientUnits="userSpaceOnUse">
<stop stop-color="#6CBCFC"/>
<stop offset="1" stop-color="#458DFC"/>
</linearGradient>
<linearGradient id="paint3_linear_125_145" x1="59.6026" y1="59.5877" x2="24.4812" y2="59.5877" gradientUnits="userSpaceOnUse">
<stop stop-color="#6CBCFC"/>
<stop offset="1" stop-color="#458DFC"/>
</linearGradient>
<linearGradient id="paint4_linear_125_145" x1="53.2335" y1="65.7799" x2="24.4812" y2="65.7799" gradientUnits="userSpaceOnUse">
<stop stop-color="#6888C8"/>
<stop offset="1" stop-color="#458DFC"/>
</linearGradient>
<linearGradient id="paint5_linear_125_145" x1="56.6573" y1="71.5124" x2="24.4813" y2="71.5124" gradientUnits="userSpaceOnUse">
<stop stop-color="#6CBCFC"/>
<stop offset="1" stop-color="#458DFC"/>
</linearGradient>
<clipPath id="clip0_125_145">
<rect width="67.2917" height="95" fill="white" transform="translate(12)"/>
</clipPath>
</defs>
</svg>
