<svg width="92" height="96" viewBox="0 0 92 96" fill="none" xmlns="http://www.w3.org/2000/svg">
<g clip-path="url(#clip0_125_147)">
<path d="M72.4754 26.0108H19.2583V83.1274H72.4754V26.0108Z" fill="url(#paint0_linear_125_147)"/>
<path d="M19.0381 26.0108C19.1023 26.0108 19.1665 26.0383 19.2583 26.0658C19.2583 45.068 19.2583 64.0702 19.2583 83.0999C15.1386 83.421 11.6611 82.3842 8.89931 79.7234C6.94496 77.8332 5.9999 75.6128 5.9999 73.0987C5.9999 64.1986 5.9999 55.3077 5.9999 46.4076C5.9999 43.0127 5.99072 39.6178 5.99072 36.223C5.99072 32.1216 8.20199 29.1396 12.2667 27.121C14.3587 26.0934 16.68 25.9374 19.0381 26.0108Z" fill="url(#paint1_linear_125_147)"/>
<path d="M63.1808 26.0016C65.5573 26.0016 65.7958 26.0016 68.1631 26.0016C68.1631 45.068 68.1631 64.0702 68.1631 83.1091C52.0053 83.1091 39.7837 83.1091 23.5708 83.1091C23.5708 64.0794 23.5708 45.0772 23.5708 26.02C25.938 26.02 26.4519 26.02 28.865 26.02C28.865 25.7814 28.865 25.5979 28.865 25.4236C28.865 23.3775 28.8742 21.3222 28.8558 19.2761C28.8375 17.8447 29.2228 16.5969 30.3422 15.6243C31.1313 14.9453 32.0397 14.5966 33.0673 14.5966C36.2512 14.5875 39.4258 14.5875 42.6097 14.5875C47.9589 14.5875 53.3173 14.5966 58.6666 14.5875C60.0704 14.5875 61.2357 15.0462 62.1532 16.1106C62.8872 16.9639 63.1625 17.964 63.1625 19.0834C63.1533 21.2396 63.1625 23.3958 63.1625 25.552C63.1533 25.6713 63.1625 25.8089 63.1808 26.0016ZM34.6088 26.0016C34.829 26.0016 34.9941 26.0016 35.1593 26.0016C37.6917 26.0016 40.2333 26.0016 42.7657 26.0016C47.5002 26.0016 52.2438 26.0016 56.9783 26.0108C57.3545 26.0108 57.4371 25.8915 57.4371 25.5337C57.4187 23.928 57.4371 22.3223 57.4371 20.7166C57.4371 20.5882 57.4187 20.4597 57.4004 20.3221C49.7848 20.3221 42.2151 20.3221 34.6088 20.3221C34.6088 22.2122 34.6088 24.0656 34.6088 26.0016Z" fill="white"/>
<mask id="mask0_125_147" style="mask-type:alpha" maskUnits="userSpaceOnUse" x="23" y="14" width="46" height="70">
<path d="M63.1808 26.0016C65.5573 26.0016 65.7958 26.0016 68.1631 26.0016C68.1631 45.068 68.1631 64.0702 68.1631 83.1091C52.0053 83.1091 39.7837 83.1091 23.5708 83.1091C23.5708 64.0794 23.5708 45.0772 23.5708 26.02C25.938 26.02 26.4519 26.02 28.865 26.02C28.865 25.7814 28.865 25.5979 28.865 25.4236C28.865 23.3775 28.8742 21.3222 28.8558 19.2761C28.8375 17.8447 29.2228 16.5969 30.3422 15.6243C31.1313 14.9453 32.0397 14.5966 33.0673 14.5966C36.2512 14.5875 39.4258 14.5875 42.6097 14.5875C47.9589 14.5875 53.3173 14.5966 58.6666 14.5875C60.0704 14.5875 61.2357 15.0462 62.1532 16.1106C62.8872 16.9639 63.1625 17.964 63.1625 19.0834C63.1533 21.2396 63.1625 23.3958 63.1625 25.552C63.1533 25.6713 63.1625 25.8089 63.1808 26.0016ZM34.6088 26.0016C34.829 26.0016 34.9941 26.0016 35.1593 26.0016C37.6917 26.0016 40.2333 26.0016 42.7657 26.0016C47.5002 26.0016 52.2438 26.0016 56.9783 26.0108C57.3545 26.0108 57.4371 25.8915 57.4371 25.5337C57.4187 23.928 57.4371 22.3223 57.4371 20.7166C57.4371 20.5882 57.4187 20.4597 57.4004 20.3221C49.7848 20.3221 42.2151 20.3221 34.6088 20.3221C34.6088 22.2122 34.6088 24.0656 34.6088 26.0016Z" fill="#F7F9FC"/>
</mask>
<g mask="url(#mask0_125_147)">
<path d="M64.096 12H27V26.02H64.096V12Z" fill="url(#paint2_linear_125_147)"/>
</g>
<path d="M86 36.0762C86 32.2959 83.9355 29.4791 80.2654 27.433C78.0082 26.176 75.4483 25.9374 72.8241 25.9925C72.4204 26.0016 72.4755 26.2127 72.4755 26.4329C72.4755 33.0391 72.4755 39.6362 72.4755 46.2425C72.4755 57.8493 72.4755 69.447 72.4663 81.0538C72.4663 81.7236 72.4663 82.3934 72.4663 83.1183C74.1179 83.1733 75.6869 83.1825 77.2283 82.8155C82.4399 81.586 85.9908 77.7048 85.9908 73.1263C86.0092 60.7854 86 48.4262 86 36.0762Z" fill="url(#paint3_linear_125_147)"/>
<path d="M50.216 58.7852C50.216 59.9688 50.216 61.0882 50.216 62.2168C50.216 63.4921 50.216 64.7675 50.216 66.0337C50.216 66.7953 49.8306 67.199 49.0782 67.199C47.0046 67.2082 44.931 67.2082 42.8573 67.199C42.1692 67.199 41.7838 66.7677 41.7838 66.0429C41.7838 63.7674 41.7838 61.4919 41.7838 59.2164C41.7838 59.088 41.7838 58.9503 41.7838 58.7852C41.6095 58.7852 41.481 58.7852 41.3434 58.7852C39.1046 58.7852 36.8567 58.7852 34.6179 58.7852C33.7279 58.7852 33.3608 58.4273 33.3608 57.5373C33.3608 55.5646 33.3608 53.5919 33.3608 51.6192C33.3608 50.72 33.7187 50.3622 34.6087 50.3622C36.8383 50.3622 39.0679 50.3622 41.2975 50.3622C41.4443 50.3622 41.582 50.3622 41.7746 50.3622C41.7746 50.2154 41.7746 50.0961 41.7746 49.9768C41.7746 47.7013 41.7746 45.4258 41.7746 43.1504C41.7746 42.3062 42.1508 41.9392 42.995 41.9392C44.9677 41.9392 46.9404 41.9392 48.9131 41.9392C49.8398 41.9392 50.1976 42.2879 50.1976 43.2329C50.2068 45.4901 50.1976 47.738 50.1976 49.9952C50.1976 50.1053 50.1976 50.2154 50.1976 50.3714C50.3444 50.3714 50.4729 50.3714 50.5922 50.3714C52.8677 50.3714 55.1432 50.3714 57.4186 50.3805C58.2536 50.3805 58.6114 50.7476 58.6114 51.5825C58.6114 53.5644 58.6114 55.5463 58.6114 57.5282C58.6114 58.4365 58.2628 58.7852 57.3728 58.7852C55.1065 58.7852 52.8401 58.7852 50.583 58.7944C50.4912 58.7852 50.3811 58.7852 50.216 58.7852Z" fill="url(#paint4_linear_125_147)"/>
</g>
<defs>
<linearGradient id="paint0_linear_125_147" x1="19.2596" y1="54.5657" x2="72.4729" y2="54.5657" gradientUnits="userSpaceOnUse">
<stop stop-color="#B0F4FF"/>
<stop offset="1" stop-color="#69DCFC"/>
</linearGradient>
<linearGradient id="paint1_linear_125_147" x1="5.9999" y1="54.5747" x2="19.2596" y2="54.5747" gradientUnits="userSpaceOnUse">
<stop stop-color="#6CBCFC"/>
<stop offset="1" stop-color="#458DFC"/>
</linearGradient>
<linearGradient id="paint2_linear_125_147" x1="26.9962" y1="19.0085" x2="64.0944" y2="19.0085" gradientUnits="userSpaceOnUse">
<stop stop-color="#6CBCFC"/>
<stop offset="1" stop-color="#458DFC"/>
</linearGradient>
<linearGradient id="paint3_linear_125_147" x1="72.4686" y1="54.569" x2="86.0007" y2="54.569" gradientUnits="userSpaceOnUse">
<stop stop-color="#6CBCFC"/>
<stop offset="1" stop-color="#458DFC"/>
</linearGradient>
<linearGradient id="paint4_linear_125_147" x1="33.3665" y1="54.5783" x2="58.6298" y2="54.5783" gradientUnits="userSpaceOnUse">
<stop stop-color="#6888C8"/>
<stop offset="1" stop-color="#458DFC"/>
</linearGradient>
<clipPath id="clip0_125_147">
<rect width="80" height="71.1549" fill="white" transform="translate(6 12)"/>
</clipPath>
</defs>
</svg>
