<svg width="92" height="96" viewBox="0 0 92 96" fill="none" xmlns="http://www.w3.org/2000/svg">
<path d="M83 4.31029V90.7055C83 93.0896 80.9468 95.0158 78.4055 95.0158H13.5945C11.0532 95 9 93.0738 9 90.7055V4.31029C9 1.92621 11.0532 0 13.5945 0H78.4223C80.9468 0 83 1.92621 83 4.31029Z" fill="url(#paint0_linear_125_148)"/>
<path d="M78.2858 7.94666V87.0533C78.2858 89.2363 76.4817 91 74.2488 91H17.3008C15.0678 90.9855 13.2637 89.2218 13.2637 87.0533V7.94666C13.2637 5.76371 15.0678 4 17.3008 4H74.2636C76.4817 4 78.2858 5.76371 78.2858 7.94666Z" fill="url(#paint1_linear_125_148)"/>
<path d="M37.644 18.2516V22.183C37.644 22.4672 37.4084 22.6882 37.1055 22.6882H31.9724C31.6695 22.6882 31.4339 22.9093 31.4339 23.1935V28.009C31.4339 28.2932 31.1983 28.5142 30.8953 28.5142H26.7048C26.4018 28.5142 26.1662 28.2932 26.1662 28.009V23.1935C26.1662 22.9093 25.9306 22.6882 25.6277 22.6882H20.5115C20.2085 22.6882 19.9729 22.4672 19.9729 22.183V18.2516C19.9729 17.9674 20.2085 17.7464 20.5115 17.7464H25.6445C25.9474 17.7464 26.183 17.5254 26.183 17.2412V12.4256C26.183 12.1415 26.4187 11.9204 26.7216 11.9204H30.9122C31.2151 11.9204 31.4507 12.1415 31.4507 12.4256V17.2412C31.4507 17.5254 31.6863 17.7464 31.9893 17.7464H37.1055C37.4084 17.7464 37.644 17.9674 37.644 18.2516Z" fill="url(#paint2_linear_125_148)"/>
<path opacity="0.5" d="M71.438 39.6768H20.5619C20.2253 39.6768 19.9561 39.4242 19.9561 39.1084V37.2927C19.9561 36.9769 20.2253 36.7243 20.5619 36.7243H71.438C71.7746 36.7243 72.0438 36.9769 72.0438 37.2927V39.1084C72.027 39.4242 71.7746 39.6768 71.438 39.6768Z" fill="url(#paint3_linear_125_148)"/>
<path d="M71.438 17.0517H46.1935C45.8569 17.0517 45.5876 16.7991 45.5876 16.4833V14.6834C45.5876 14.3676 45.8569 14.115 46.1935 14.115H71.438C71.7746 14.115 72.0439 14.3676 72.0439 14.6834V16.4991C72.027 16.7991 71.7746 17.0517 71.438 17.0517Z" fill="url(#paint4_linear_125_148)"/>
<path opacity="0.5" d="M63.9656 24.7249H46.1935C45.8569 24.7249 45.5876 24.4723 45.5876 24.1565V22.3408C45.5876 22.0251 45.8569 21.7725 46.1935 21.7725H63.9656C64.3022 21.7725 64.5715 22.0251 64.5715 22.3408V24.1565C64.5547 24.4723 64.3022 24.7249 63.9656 24.7249Z" fill="url(#paint5_linear_125_148)"/>
<path opacity="0.5" d="M71.438 48.2973H20.5619C20.2253 48.2973 19.9561 48.0447 19.9561 47.7289V45.9132C19.9561 45.5975 20.2253 45.3448 20.5619 45.3448H71.438C71.7746 45.3448 72.0438 45.5975 72.0438 45.9132V47.7289C72.027 48.0447 71.7746 48.2973 71.438 48.2973Z" fill="url(#paint6_linear_125_148)"/>
<path opacity="0.5" d="M71.438 56.9179H20.5619C20.2253 56.9179 19.9561 56.6653 19.9561 56.3495V54.5338C19.9561 54.2181 20.2253 53.9655 20.5619 53.9655H71.438C71.7746 53.9655 72.0438 54.2181 72.0438 54.5338V56.3653C72.027 56.6653 71.7746 56.9179 71.438 56.9179Z" fill="url(#paint7_linear_125_148)"/>
<path opacity="0.5" d="M71.438 65.5543H20.5619C20.2253 65.5543 19.9561 65.3017 19.9561 64.9859V63.1702C19.9561 62.8544 20.2253 62.6018 20.5619 62.6018H71.438C71.7746 62.6018 72.0438 62.8544 72.0438 63.1702V64.9859C72.027 65.3017 71.7746 65.5543 71.438 65.5543Z" fill="url(#paint8_linear_125_148)"/>
<path opacity="0.5" d="M71.438 74.1749H20.5619C20.2253 74.1749 19.9561 73.9223 19.9561 73.6065V71.7908C19.9561 71.475 20.2253 71.2224 20.5619 71.2224H71.438C71.7746 71.2224 72.0438 71.475 72.0438 71.7908V73.6065C72.027 73.9223 71.7746 74.1749 71.438 74.1749Z" fill="url(#paint9_linear_125_148)"/>
<path opacity="0.5" d="M71.438 82.7954H20.5619C20.2253 82.7954 19.9561 82.5428 19.9561 82.227V80.4113C19.9561 80.0956 20.2253 79.843 20.5619 79.843H71.438C71.7746 79.843 72.0438 80.0956 72.0438 80.4113V82.227C72.027 82.5428 71.7746 82.7954 71.438 82.7954Z" fill="url(#paint10_linear_125_148)"/>
<path opacity="0.1" d="M83 4.31029V90.7055C83 93.0896 80.9468 95.0158 78.4055 95.0158H13.5945C11.0532 95 9 93.0738 9 90.7055V89.2056C48.5329 73.8906 66.9445 15.1571 71.1014 0H78.4055C80.9468 0 83 1.92621 83 4.31029Z" fill="#1A6FB5" fill-opacity="0.4"/>
<defs>
<linearGradient id="paint0_linear_125_148" x1="110.264" y1="126" x2="11.1006" y2="-11.6219" gradientUnits="userSpaceOnUse">
<stop offset="0.3061" stop-color="#6888C8"/>
<stop offset="1" stop-color="#69B8FC"/>
</linearGradient>
<linearGradient id="paint1_linear_125_148" x1="18.1927" y1="7.04564" x2="66.3354" y2="80.9141" gradientUnits="userSpaceOnUse">
<stop offset="0.3061" stop-color="white"/>
<stop offset="1" stop-color="white"/>
</linearGradient>
<linearGradient id="paint2_linear_125_148" x1="19.6593" y1="9.50003" x2="34.207" y2="34.8279" gradientUnits="userSpaceOnUse">
<stop stop-color="#B0F4FF"/>
<stop offset="0.368525" stop-color="#80E4FD"/>
<stop offset="1" stop-color="#6CDDFC"/>
</linearGradient>
<linearGradient id="paint3_linear_125_148" x1="19.969" y1="38.2072" x2="72.0347" y2="38.2072" gradientUnits="userSpaceOnUse">
<stop stop-color="#6CBCFC"/>
<stop offset="1" stop-color="#458DFC"/>
</linearGradient>
<linearGradient id="paint4_linear_125_148" x1="45.5881" y1="15.5844" x2="72.0347" y2="15.5844" gradientUnits="userSpaceOnUse">
<stop stop-color="#6CBCFC"/>
<stop offset="1" stop-color="#458DFC"/>
</linearGradient>
<linearGradient id="paint5_linear_125_148" x1="45.5881" y1="23.2616" x2="64.5626" y2="23.2616" gradientUnits="userSpaceOnUse">
<stop stop-color="#6CBCFC"/>
<stop offset="1" stop-color="#458DFC"/>
</linearGradient>
<linearGradient id="paint6_linear_125_148" x1="19.969" y1="46.8317" x2="72.0347" y2="46.8317" gradientUnits="userSpaceOnUse">
<stop stop-color="#6CBCFC"/>
<stop offset="1" stop-color="#458DFC"/>
</linearGradient>
<linearGradient id="paint7_linear_125_148" x1="19.969" y1="55.4562" x2="72.0347" y2="55.4562" gradientUnits="userSpaceOnUse">
<stop stop-color="#6CBCFC"/>
<stop offset="1" stop-color="#458DFC"/>
</linearGradient>
<linearGradient id="paint8_linear_125_148" x1="19.969" y1="64.0807" x2="72.0347" y2="64.0807" gradientUnits="userSpaceOnUse">
<stop stop-color="#6CBCFC"/>
<stop offset="1" stop-color="#458DFC"/>
</linearGradient>
<linearGradient id="paint9_linear_125_148" x1="19.969" y1="72.7052" x2="72.0347" y2="72.7052" gradientUnits="userSpaceOnUse">
<stop stop-color="#6CBCFC"/>
<stop offset="1" stop-color="#458DFC"/>
</linearGradient>
<linearGradient id="paint10_linear_125_148" x1="19.969" y1="81.3296" x2="72.0347" y2="81.3296" gradientUnits="userSpaceOnUse">
<stop stop-color="#6CBCFC"/>
<stop offset="1" stop-color="#458DFC"/>
</linearGradient>
</defs>
</svg>
