<svg width="92" height="96" viewBox="0 0 92 96" fill="none" xmlns="http://www.w3.org/2000/svg">
<g clip-path="url(#clip0_125_144)">
<path d="M56.2153 46.3151L47.1374 54.9802L8.80308 91.5661C7.79669 92.5289 6.50566 93.0103 5.21463 93.0103C3.80162 93.0103 2.38861 92.4367 1.36188 91.2998C-0.661062 89.0669 -0.396757 85.5743 1.93116 83.6692L47.1374 46.8272L52.1185 42.7712L56.2153 46.3151Z" fill="url(#paint0_linear_125_144)"/>
<path d="M46.7409 55.4206L37.8053 63.9423L36.9819 55.185L41.8716 51.2007L46.7409 55.4206Z" fill="#3A81D6" fill-opacity="0.8"/>
<path d="M91.9777 32.9078C91.9777 49.4288 78.6812 62.8259 62.2943 62.8259C51.9661 62.8259 42.8679 57.5101 37.5513 49.4391C34.4305 44.7071 32.6108 39.0225 32.6108 32.9078C32.6108 16.3868 45.9074 3 62.2943 3C69.6948 3 76.4549 5.72448 81.6495 10.2311C87.9725 15.7211 91.9777 23.8433 91.9777 32.9078Z" fill="url(#paint1_linear_125_144)"/>
<path d="M62.2941 56.2093C75.0666 56.2093 85.4208 45.7768 85.4208 32.9078C85.4208 20.0387 75.0666 9.60632 62.2941 9.60632C49.5216 9.60632 39.1675 20.0387 39.1675 32.9078C39.1675 45.7768 49.5216 56.2093 62.2941 56.2093Z" fill="white"/>
<path opacity="0.06" d="M91.9777 32.9078C91.9777 49.4288 78.6811 62.8259 62.2942 62.8259C51.966 62.8259 42.8679 57.5101 37.5513 49.4391C71.0265 46.6941 79.8502 18.1178 81.6596 10.2311C87.9725 15.7211 91.9777 23.8433 91.9777 32.9078Z" fill="#1A6FB5" fill-opacity="0.5"/>
<path d="M62.2944 32.959C64.9782 32.959 67.1536 30.7672 67.1536 28.0632C67.1536 25.3592 64.9782 23.1673 62.2944 23.1673C59.6107 23.1673 57.4353 25.3592 57.4353 28.0632C57.4353 30.7672 59.6006 32.959 62.2944 32.959ZM62.2944 35.407C59.0516 35.407 52.5762 37.0458 52.5762 40.3028V41.5319C52.5762 42.2079 53.1251 42.761 53.796 42.761H70.8132C71.4841 42.761 72.0331 42.2079 72.0331 41.5319V40.3028C72.0127 37.056 65.5373 35.407 62.2944 35.407Z" fill="url(#paint2_linear_125_144)"/>
</g>
<defs>
<linearGradient id="paint0_linear_125_144" x1="5.67441" y1="87.3265" x2="53.9241" y2="43.7922" gradientUnits="userSpaceOnUse">
<stop stop-color="#67C3F3"/>
<stop offset="1" stop-color="#5A98F2"/>
</linearGradient>
<linearGradient id="paint1_linear_125_144" x1="50.017" y1="5.11336" x2="72.7815" y2="55.9053" gradientUnits="userSpaceOnUse">
<stop stop-color="#6888C8"/>
<stop offset="1" stop-color="#5A98F2"/>
</linearGradient>
<linearGradient id="paint2_linear_125_144" x1="55.2685" y1="31.3947" x2="72.9194" y2="39.9391" gradientUnits="userSpaceOnUse">
<stop stop-color="#B0F4FF"/>
<stop offset="0.071077" stop-color="#A6F1FF"/>
<stop offset="0.2937" stop-color="#8BE8FD"/>
<stop offset="0.5209" stop-color="#78E1FD"/>
<stop offset="0.7536" stop-color="#6DDDFC"/>
<stop offset="1" stop-color="#69DCFC"/>
</linearGradient>
<clipPath id="clip0_125_144">
<rect width="91.978" height="90" fill="white" transform="translate(0 3)"/>
</clipPath>
</defs>
</svg>
