<svg width="92" height="96" viewBox="0 0 92 96" fill="none" xmlns="http://www.w3.org/2000/svg">
<g clip-path="url(#clip0_125_146)">
<path d="M79.0754 90.4482C79.0754 92.9272 77.069 94.942 74.5899 94.942L16.585 95.0083C14.6117 95.0083 12.9369 93.7398 12.3316 91.9737C12.1741 91.5177 12.0912 91.0368 12.0912 90.5311L12 6.88167C12 4.40261 14.0065 2.38786 16.4855 2.38786L69.7479 2.32982L74.4904 2.32153C76.9695 2.32153 78.9842 4.32799 78.9842 6.80705L79.0754 90.4482Z" fill="url(#paint0_linear_125_146)"/>
<path d="M73.0644 89.9673L18.1023 90.0253C16.7675 90.0253 15.6896 88.9474 15.6896 87.6126L15.6067 9.76697C15.6067 8.43209 16.6845 7.35424 18.0194 7.35424L72.9732 7.2962C74.308 7.2962 75.3859 8.37405 75.3859 9.70893L75.4688 87.5545C75.4771 88.8811 74.3992 89.9673 73.0644 89.9673Z" fill="white"/>
<path d="M65.3452 13.7136L25.2574 13.7633C23.9309 13.7633 22.8447 12.6855 22.8447 11.3589L22.8364 4.67623C22.8364 3.34964 23.9143 2.2635 25.2409 2.2635L65.3369 2.22205C66.6634 2.22205 67.7496 3.2999 67.7496 4.62648L67.7579 11.3091C67.7496 12.6357 66.6717 13.7136 65.3452 13.7136ZM25.2409 3.49059C24.5941 3.49059 24.0635 4.02123 24.0635 4.66793L24.0718 11.3506C24.0718 11.9973 24.6024 12.5279 25.2492 12.5279L65.3452 12.4865C65.9919 12.4865 66.5225 11.9559 66.5225 11.3091L66.5142 4.62648C66.5142 3.97977 65.9836 3.44914 65.3369 3.44914L25.2409 3.49059Z" fill="url(#paint1_linear_125_146)"/>
<path d="M64.2093 5.11564L26.7748 5.1571C26.3602 5.1571 26.0286 4.82545 26.0286 4.41089V0.787659C26.0286 0.373102 26.3602 0.0414557 26.7748 0.0414557L64.201 0C64.6156 0 64.9472 0.331646 64.9472 0.746203V4.36944C64.9555 4.78399 64.6239 5.11564 64.2093 5.11564Z" fill="url(#paint2_linear_125_146)"/>
<path d="M26.8079 5.15708L64.1761 5.11562C64.6073 5.11562 64.9555 4.7674 64.9555 4.33626V2.56195L26.0203 2.60341V4.37771C26.0203 4.80885 26.3768 5.15708 26.8079 5.15708Z" fill="#58D6F4"/>
<path d="M39.9411 81.2118L36.7075 61.6447L34.0875 70.1597L26.5923 70.168C26.1363 70.168 25.7715 69.8032 25.7715 69.3472C25.7715 68.8912 26.1363 68.5264 26.5923 68.5264L32.8853 68.5181L37.205 54.4977L40.4385 74.1146L44.6339 60.6415L46.8642 67.0257L51.8886 54.846L56.7721 74.1643L58.6127 68.0206L64.002 68.0123C64.458 68.0123 64.8228 68.3771 64.8228 68.8331C64.8228 69.2892 64.458 69.654 64.002 69.654L59.8315 69.6623L56.6394 80.3164L51.5155 60.0528L46.7315 71.6355L44.7168 65.8732L39.9411 81.2118Z" fill="#58D6F4"/>
<path d="M34.386 43.4871L23.848 43.4954C22.1483 43.4954 20.7554 42.1107 20.7554 40.411L20.7388 25.6777C20.7388 23.978 22.1234 22.5851 23.8231 22.5851L34.3611 22.5768C36.0608 22.5768 37.4537 23.9614 37.4537 25.6611L37.4703 40.3945C37.4703 42.0942 36.0857 43.4788 34.386 43.4871ZM23.8148 23.4805C22.6043 23.4805 21.6259 24.4672 21.6259 25.6777L21.6425 40.411C21.6425 41.6216 22.6292 42.5999 23.8397 42.5999L34.3777 42.5916C35.5882 42.5916 36.5666 41.605 36.5666 40.3945L36.55 25.6611C36.55 24.4506 35.5634 23.4722 34.3528 23.4722L23.8148 23.4805Z" fill="url(#paint3_linear_125_146)"/>
<path d="M29.1045 40.6598C34.0875 40.6515 35.6379 37.7745 35.6379 37.7745C35.4141 37.4926 35.1322 37.2439 34.7508 36.9951C33.4408 36.1411 32.3878 35.7763 31.9484 35.4115C31.5007 35.055 31.2519 34.5327 31.2519 34.5327L30.9783 34.6985C30.9783 34.6985 30.8125 34.1264 30.9037 33.2558C30.9037 33.2558 31.2934 33.1563 31.5836 31.838C32.0479 31.9292 32.5951 30.7519 32.3381 30.3207C32.1722 30.0388 31.9733 30.0637 31.8323 30.1301C31.9733 29.5414 32.6117 26.283 29.0962 26.283C25.5808 26.283 26.2192 29.5414 26.3684 30.1301C26.2275 30.0637 26.0285 30.0388 25.8627 30.3207C25.6056 30.7519 26.1612 31.9292 26.6255 31.838C26.9157 33.1563 27.3136 33.2475 27.3136 33.2475C27.4131 34.1098 27.239 34.6902 27.239 34.6902L26.9654 34.5244C26.9654 34.5244 26.7167 35.0384 26.2689 35.4032C25.8212 35.768 24.7765 36.1411 23.4665 36.9951C23.0851 37.2439 22.7949 37.4926 22.5794 37.7745C22.5711 37.7911 24.1298 40.6681 29.1045 40.6598Z" fill="url(#paint4_linear_125_146)"/>
<path d="M61.9209 27.2779L41.6325 27.3028C41.2511 27.3028 40.9443 26.996 40.9443 26.6146V26.4986C40.9443 26.1172 41.2511 25.8104 41.6325 25.8104L61.9209 25.7855C62.3023 25.7855 62.6091 26.0923 62.6091 26.4737V26.5898C62.6091 26.9712 62.294 27.2779 61.9209 27.2779Z" fill="url(#paint5_linear_125_146)"/>
<path d="M54.4589 31.1415L41.6325 31.1581C41.2511 31.1581 40.9443 30.8513 40.9443 30.4699V30.3539C40.9443 29.9725 41.2511 29.6657 41.6325 29.6657L54.4589 29.6491C54.8403 29.6491 55.1471 29.9559 55.1471 30.3373V30.4534C55.1471 30.8348 54.8403 31.1415 54.4589 31.1415Z" fill="url(#paint6_linear_125_146)"/>
<path opacity="0.6" d="M68.9187 35.7348L41.6408 35.768C41.2594 35.768 40.9526 35.4612 40.9526 35.0798V34.9638C40.9526 34.5824 41.2594 34.2756 41.6408 34.2756L68.9187 34.2424C69.3001 34.2424 69.6069 34.5492 69.6069 34.9306V35.0467C69.5986 35.4281 69.2918 35.7348 68.9187 35.7348Z" fill="url(#paint7_linear_125_146)"/>
<path opacity="0.6" d="M68.3301 48.6442L22.8283 48.6939C22.4386 48.6939 22.1152 48.3789 22.1152 47.9809V47.9146C22.1152 47.5249 22.4303 47.2015 22.8283 47.2015L68.3301 47.1518C68.7198 47.1518 69.0431 47.4669 69.0431 47.8648V47.9312C69.0431 48.3291 68.7198 48.6442 68.3301 48.6442Z" fill="url(#paint8_linear_125_146)"/>
<path opacity="0.6" d="M68.9187 40.2452L41.6408 40.2784C41.2594 40.2784 40.9526 39.9716 40.9526 39.5902V39.4741C40.9526 39.0927 41.2594 38.786 41.6408 38.786L68.9187 38.7528C69.3001 38.7528 69.6069 39.0596 69.6069 39.441V39.5571C69.6069 39.9384 69.3001 40.2452 68.9187 40.2452Z" fill="url(#paint9_linear_125_146)"/>
</g>
<defs>
<linearGradient id="paint0_linear_125_146" x1="2.71132" y1="34.748" x2="88.3641" y2="62.5782" gradientUnits="userSpaceOnUse">
<stop stop-color="#6CBCFC"/>
<stop offset="0.1713" stop-color="#5EABFC"/>
<stop offset="0.4084" stop-color="#509AFC"/>
<stop offset="0.6698" stop-color="#4890FC"/>
<stop offset="1" stop-color="#458DFC"/>
</linearGradient>
<linearGradient id="paint1_linear_125_146" x1="6.77491" y1="-21.375" x2="67.7513" y2="7.98973" gradientUnits="userSpaceOnUse">
<stop stop-color="#CFE9FF"/>
<stop offset="1" stop-color="#A1D6FB"/>
</linearGradient>
<linearGradient id="paint2_linear_125_146" x1="26.0191" y1="2.57952" x2="64.9549" y2="2.57952" gradientUnits="userSpaceOnUse">
<stop stop-color="#B0F4FF"/>
<stop offset="1" stop-color="#69DCFC"/>
</linearGradient>
<linearGradient id="paint3_linear_125_146" x1="26.1349" y1="29.2075" x2="35.9155" y2="41.8334" gradientUnits="userSpaceOnUse">
<stop stop-color="#6CBCFC"/>
<stop offset="1" stop-color="#458DFC"/>
</linearGradient>
<linearGradient id="paint4_linear_125_146" x1="25.074" y1="30.0293" x2="34.8547" y2="42.6553" gradientUnits="userSpaceOnUse">
<stop stop-color="#B0F4FF"/>
<stop offset="0.0994384" stop-color="#A1EFFE"/>
<stop offset="0.2994" stop-color="#88E7FD"/>
<stop offset="0.5095" stop-color="#77E1FD"/>
<stop offset="0.7344" stop-color="#6CDDFC"/>
<stop offset="1" stop-color="#69DCFC"/>
</linearGradient>
<linearGradient id="paint5_linear_125_146" x1="40.9455" y1="26.551" x2="62.6048" y2="26.564" gradientUnits="userSpaceOnUse">
<stop stop-color="#6CBCFC"/>
<stop offset="1" stop-color="#458DFC"/>
</linearGradient>
<linearGradient id="paint6_linear_125_146" x1="40.9495" y1="30.4036" x2="55.1462" y2="30.4036" gradientUnits="userSpaceOnUse">
<stop stop-color="#6CBCFC"/>
<stop offset="1" stop-color="#458DFC"/>
</linearGradient>
<linearGradient id="paint7_linear_125_146" x1="40.9542" y1="35.0098" x2="69.6022" y2="35.0098" gradientUnits="userSpaceOnUse">
<stop stop-color="#6CBCFC"/>
<stop offset="1" stop-color="#458DFC"/>
</linearGradient>
<linearGradient id="paint8_linear_125_146" x1="22.1148" y1="47.9272" x2="69.0408" y2="47.9272" gradientUnits="userSpaceOnUse">
<stop stop-color="#6888C8"/>
<stop offset="1" stop-color="#458DFC"/>
</linearGradient>
<linearGradient id="paint9_linear_125_146" x1="40.9588" y1="39.5191" x2="69.6068" y2="39.5191" gradientUnits="userSpaceOnUse">
<stop stop-color="#6CBCFC"/>
<stop offset="1" stop-color="#458DFC"/>
</linearGradient>
<clipPath id="clip0_125_146">
<rect width="67.0754" height="95" fill="white" transform="translate(12)"/>
</clipPath>
</defs>
</svg>
