<svg width="25" height="25" viewBox="0 0 25 25" fill="none" xmlns="http://www.w3.org/2000/svg">
<path d="M13.21 16.79L13.06 16.67C13.0043 16.6322 12.9437 16.6019 12.88 16.58L12.7 16.5C12.5378 16.4661 12.3698 16.473 12.2109 16.5201C12.0521 16.5673 11.9074 16.6531 11.79 16.77C11.7017 16.8672 11.6306 16.9788 11.58 17.1C11.5043 17.2822 11.4842 17.4827 11.5223 17.6763C11.5603 17.8699 11.6547 18.0479 11.7937 18.188C11.9327 18.328 12.11 18.4238 12.3033 18.4633C12.4966 18.5028 12.6972 18.4843 12.88 18.41C12.9995 18.352 13.1105 18.278 13.21 18.19C13.3488 18.0494 13.4428 17.8708 13.4801 17.6768C13.5175 17.4828 13.4966 17.2821 13.42 17.1C13.3701 16.9844 13.2989 16.8792 13.21 16.79ZM16.5 2.5H8.5C7.70435 2.5 6.94129 2.81607 6.37868 3.37868C5.81607 3.94129 5.5 4.70435 5.5 5.5V19.5C5.5 20.2956 5.81607 21.0587 6.37868 21.6213C6.94129 22.1839 7.70435 22.5 8.5 22.5H16.5C17.2956 22.5 18.0587 22.1839 18.6213 21.6213C19.1839 21.0587 19.5 20.2956 19.5 19.5V5.5C19.5 4.70435 19.1839 3.94129 18.6213 3.37868C18.0587 2.81607 17.2956 2.5 16.5 2.5ZM17.5 19.5C17.5 19.7652 17.3946 20.0196 17.2071 20.2071C17.0196 20.3946 16.7652 20.5 16.5 20.5H8.5C8.23478 20.5 7.98043 20.3946 7.79289 20.2071C7.60536 20.0196 7.5 19.7652 7.5 19.5V5.5C7.5 5.23478 7.60536 4.98043 7.79289 4.79289C7.98043 4.60536 8.23478 4.5 8.5 4.5H16.5C16.7652 4.5 17.0196 4.60536 17.2071 4.79289C17.3946 4.98043 17.5 5.23478 17.5 5.5V19.5Z" fill="white"/>
</svg>
