<svg width="25" height="25" viewBox="0 0 25 25" fill="none" xmlns="http://www.w3.org/2000/svg">
<path d="M19.5 3.5H5.5C4.70435 3.5 3.94129 3.81607 3.37868 4.37868C2.81607 4.94129 2.5 5.70435 2.5 6.5V14.5C2.5 15.2956 2.81607 16.0587 3.37868 16.6213C3.94129 17.1839 4.70435 17.5 5.5 17.5H11.5V19.5H7.5C7.23478 19.5 6.98043 19.6054 6.79289 19.7929C6.60536 19.9804 6.5 20.2348 6.5 20.5C6.5 20.7652 6.60536 21.0196 6.79289 21.2071C6.98043 21.3946 7.23478 21.5 7.5 21.5H17.5C17.7652 21.5 18.0196 21.3946 18.2071 21.2071C18.3946 21.0196 18.5 20.7652 18.5 20.5C18.5 20.2348 18.3946 19.9804 18.2071 19.7929C18.0196 19.6054 17.7652 19.5 17.5 19.5H13.5V17.5H19.5C20.2956 17.5 21.0587 17.1839 21.6213 16.6213C22.1839 16.0587 22.5 15.2956 22.5 14.5V6.5C22.5 5.70435 22.1839 4.94129 21.6213 4.37868C21.0587 3.81607 20.2956 3.5 19.5 3.5ZM20.5 14.5C20.5 14.7652 20.3946 15.0196 20.2071 15.2071C20.0196 15.3946 19.7652 15.5 19.5 15.5H5.5C5.23478 15.5 4.98043 15.3946 4.79289 15.2071C4.60536 15.0196 4.5 14.7652 4.5 14.5V6.5C4.5 6.23478 4.60536 5.98043 4.79289 5.79289C4.98043 5.60536 5.23478 5.5 5.5 5.5H19.5C19.7652 5.5 20.0196 5.60536 20.2071 5.79289C20.3946 5.98043 20.5 6.23478 20.5 6.5V14.5Z" fill="white"/>
</svg>
